<?xml version="1.0" encoding="UTF-8"?>
<svg id="Layer_2" xmlns="http://www.w3.org/2000/svg" viewBox="0 0 18.1 18.1">
  <defs>
    <style>
      .cls-1 {
        fill: #231f20;
      }
    </style>
  </defs>
  <g id="Layer_1-2" data-name="Layer_1">
    <path class="cls-1" d="M9.25.16l1.23,5.43,4.71-2.97c.19-.12.41.1.29.29l-2.97,4.71,5.43,1.23c.22.05.22.36,0,.41l-5.43,1.23,2.97,4.71c.12.19-.1.41-.29.29l-4.71-2.97-1.23,5.43c-.05.22-.36.22-.41,0l-1.23-5.43-4.71,2.97c-.19.12-.41-.1-.29-.29l2.97-4.71L.16,9.25c-.22-.05-.22-.36,0-.41l5.43-1.23L2.62,2.91c-.12-.19.1-.41.29-.29l4.71,2.97L8.84.16c.05-.22.36-.22.41,0Z"/>
  </g>
</svg>