<?xml version="1.0" encoding="UTF-8" standalone="no"?>
<!-- Generator: Adobe Illustrator 12.0.0, SVG Export Plug-In . SVG Version: 6.00 Build 51448)  -->
<svg
   xmlns:dc="http://purl.org/dc/elements/1.1/"
   xmlns:cc="http://web.resource.org/cc/"
   xmlns:rdf="http://www.w3.org/1999/02/22-rdf-syntax-ns#"
   xmlns:svg="http://www.w3.org/2000/svg"
   xmlns="http://www.w3.org/2000/svg"
   xmlns:xlink="http://www.w3.org/1999/xlink"
   xmlns:sodipodi="http://sodipodi.sourceforge.net/DTD/sodipodi-0.dtd"
   xmlns:inkscape="http://www.inkscape.org/namespaces/inkscape"
   version="1.0"
   width="599"
   height="599.39899"
   viewBox="0 0 599 599.399"
   overflow="visible"
   enable-background="new 0 0 599 599.399"
   xml:space="preserve"
   id="svg2214"
   sodipodi:version="0.32"
   inkscape:version="0.45pre1"
   sodipodi:docname="bluemarble.svg"
   inkscape:output_extension="org.inkscape.output.svg.inkscape"
   sodipodi:docbase="C:\General Sandbox\Art"
   sodipodi:modified="true"><metadata
   id="metadata2254"><rdf:RDF><cc:Work
       rdf:about=""><dc:format>image/svg+xml</dc:format><dc:type
         rdf:resource="http://purl.org/dc/dcmitype/StillImage" /><cc:license
         rdf:resource="http://creativecommons.org/licenses/by-sa/2.5/" /></cc:Work><cc:License
       rdf:about="http://creativecommons.org/licenses/by-sa/2.5/"><cc:permits
         rdf:resource="http://web.resource.org/cc/Reproduction" /><cc:permits
         rdf:resource="http://web.resource.org/cc/Distribution" /><cc:requires
         rdf:resource="http://web.resource.org/cc/Notice" /><cc:requires
         rdf:resource="http://web.resource.org/cc/Attribution" /><cc:permits
         rdf:resource="http://web.resource.org/cc/DerivativeWorks" /><cc:requires
         rdf:resource="http://web.resource.org/cc/ShareAlike" /></cc:License></rdf:RDF></metadata><defs
   id="defs2252"><linearGradient
     id="linearGradient3248"
     gradientUnits="userSpaceOnUse"
     x1="298.2319"
     y1="28.0103"
     x2="298.2319"
     y2="517.96832"
     style="fill-opacity:1.0;fill:url(#linearGradient3234)">
		<stop
   offset="0"
   style="stop-color:#000000;stop-opacity:0;"
   id="stop3250" /><stop
   id="stop3256"
   style="stop-color:#00fff5;stop-opacity:0;"
   offset="0.625" />
		
		
		
		<stop
   offset="1"
   style="stop-color:#03a0f6;stop-opacity:1;"
   id="stop3252" />
	</linearGradient><linearGradient
     inkscape:collect="always"
     xlink:href="#linearGradient3248"
     id="linearGradient3234"
     x1="298.23199"
     y1="517.96802"
     x2="298.23199"
     y2="28.01001"
     gradientUnits="userSpaceOnUse" /><linearGradient
     inkscape:collect="always"
     xlink:href="#linearGradient3248"
     id="linearGradient3254"
     gradientUnits="userSpaceOnUse"
     x1="332.08249"
     y1="505.86066"
     x2="298.23199"
     y2="28.01001" /></defs><sodipodi:namedview
   inkscape:window-height="856"
   inkscape:window-width="1440"
   inkscape:pageshadow="2"
   inkscape:pageopacity="0.0"
   guidetolerance="10.0"
   gridtolerance="10.0"
   objecttolerance="10.0"
   borderopacity="1.0"
   bordercolor="#666666"
   pagecolor="#ffffff"
   id="base"
   inkscape:zoom="0.6306317"
   inkscape:cx="299.5"
   inkscape:cy="299.69949"
   inkscape:window-x="0"
   inkscape:window-y="14"
   inkscape:current-layer="svg2214" />


<g
   id="Layer_2">
	<circle
   cx="299.50299"
   cy="297.504"
   r="269.5"
   id="circle2223"
   sodipodi:cx="299.50299"
   sodipodi:cy="297.504"
   sodipodi:rx="269.5"
   sodipodi:ry="269.5"
   style="fill:#3953a4;stroke:#000000" />
</g>
<g
   id="Layer_3">
	<path
   d="M 333.003,250.004 C 333.003,250.004 324.003,240.004 330.003,235.004 C 336.003,230.004 340.003,222.004 347.003,221.004 C 354.003,220.004 354.003,211.004 354.003,211.004 C 354.003,211.004 361.003,219.004 360.003,223.004 C 359.003,227.004 357.003,245.004 354.003,247.004 C 351.003,249.004 350.003,266.004 348.003,270.004 C 346.003,274.004 347.003,281.004 336.003,281.004 C 325.003,281.004 326.003,276.004 328.003,271.004 C 330.003,266.004 322.003,263.004 327.003,259.004 C 332.003,255.004 333.003,250.004 333.003,250.004 z "
   id="path2226"
   style="fill:#5ebb46" />
</g>
<g
   id="Layer_4">
	<path
   d="M 386.076,43.144 C 394.139,46.91 436.417,56.885 490.004,108.824 L 487.004,113.824 L 480.004,118.824 C 480.004,118.824 472.004,116.824 468.004,116.824 C 464.004,116.824 462.004,113.824 456.004,112.824 C 450.004,111.824 451.004,108.824 448.004,103.824 C 445.004,98.824 443.004,95.824 438.004,94.824 C 433.004,93.824 431.004,90.824 426.004,85.824 C 421.004,80.824 415.004,78.824 415.004,78.824 L 403.004,75.824 L 388.004,71.824 L 376.004,66.824 L 359.004,63.824 L 332.004,57.824 L 350.004,68.824 C 350.004,68.824 361.004,67.824 365.004,67.824 C 369.004,67.824 381.004,74.824 386.004,76.824 C 391.004,78.824 373.004,91.824 369.004,89.824 C 365.004,87.824 354.004,92.824 354.004,92.824 C 354.004,92.824 324.004,101.824 318.004,99.824 C 312.004,97.824 313.004,84.824 308.004,84.824 C 303.004,84.824 293.004,74.824 287.004,69.824 C 281.004,64.824 274.004,69.824 274.004,69.824 C 274.004,69.824 269.004,74.824 282.004,79.824 C 295.004,84.824 282.004,93.824 294.004,92.824 C 306.004,91.824 311.004,106.824 322.004,109.824 C 333.004,112.824 355.004,102.824 355.004,102.824 C 355.004,102.824 354.004,96.824 354.004,113.824 C 354.004,130.824 322.004,144.824 322.004,147.824 C 322.004,150.824 306.004,164.824 301.004,168.824 C 296.004,172.824 297.004,187.824 303.004,190.824 C 309.004,193.824 312.004,215.824 309.004,224.824 C 306.004,233.824 281.004,248.824 279.004,253.824 C 277.004,258.824 286.004,271.824 285.004,275.824 C 284.004,279.824 277.004,287.824 274.004,291.824 C 271.004,295.824 269.004,305.824 268.004,312.824 C 267.004,319.824 263.004,325.824 259.004,333.824 C 255.004,341.824 229.004,343.824 229.004,343.824 C 229.004,343.824 210.004,331.824 209.004,328.824 C 208.004,325.824 178.004,290.824 181.004,283.824 C 184.004,276.824 167.004,268.824 167.004,259.824 C 167.004,250.824 172.004,236.824 172.004,230.824 C 172.004,224.824 163.004,206.824 160.004,204.824 C 157.004,202.824 155.004,195.824 150.004,195.824 C 145.004,195.824 143.004,184.824 138.004,184.824 C 133.004,184.824 121.004,189.824 121.004,189.824 C 121.004,189.824 104.004,204.824 100.004,204.824 C 96.004,204.824 80.004,208.824 80.004,208.824 C 80.004,208.824 65.004,203.824 65.004,199.824 C 65.004,195.824 72.004,174.824 72.004,174.824 C 72.004,174.824 78.004,160.824 82.004,158.824 C 86.004,156.824 83.004,145.824 86.004,143.824 C 89.004,141.824 112.004,109.824 117.004,109.824 C 122.004,109.824 131.004,94.824 136.004,93.824 C 141.004,92.824 161.004,71.824 170.004,72.824 C 179.004,73.824 197.004,66.824 197.004,66.824 L 210.004,65.824 C 210.004,65.824 212.004,63.824 217.004,62.824 C 222.004,61.824 229.004,56.824 233.004,58.824 C 237.004,60.824 264.004,54.824 267.004,53.824 C 270.004,52.824 274.004,47.824 274.004,47.824 L 275.004,41.824 C 275.004,41.824 274.004,40.824 269.004,40.824 C 264.004,40.824 258.004,37.824 256.004,40.824 C 254.004,43.824 244.004,44.824 244.004,44.824 C 244.004,44.824 236.004,45.824 233.004,44.824 C 230.004,43.824 223.004,43.824 223.004,43.824 L 211.004,43.824 C 211.004,43.824 286.004,16.824 347.004,32.824 C 360.013,36.236 382.046,41.262 386.076,43.144 z "
   id="path2229"
   style="fill:#58b947" />
</g>
<g
   id="Layer_5">
	<path
   d="M 286.125,500.773 C 286.125,500.773 307.125,493.773 312.125,493.773 C 317.125,493.773 320.125,491.773 325.125,490.773 C 330.125,489.773 343.125,480.773 350.125,482.773 C 357.125,484.773 377.125,489.773 380.125,494.773 C 383.125,499.773 387.125,495.773 395.125,492.773 C 403.125,489.773 401.125,486.773 408.125,488.773 C 415.125,490.773 423.125,496.773 427.125,498.773 C 431.125,500.773 440.125,496.773 444.125,496.773 C 448.125,496.773 452.125,492.773 458.125,497.773 C 464.125,502.773 467.125,508.773 467.125,508.773 C 467.125,508.773 413.459,548.44 368.792,557.107 C 325.42,565.523 316.125,566.44 296.792,565.107 C 296.792,565.107 282.792,558.44 266.792,544.44 C 250.792,530.44 236.792,521.773 244.792,516.44 C 252.792,511.107 260.125,504.44 264.792,504.44 C 269.459,504.44 286.125,500.773 286.125,500.773 z "
   id="path2232"
   style="fill:#eeeded" />
</g>

<g
   id="Layer_7_copy"
   style="fill:url(#linearGradient3234);fill-opacity:1;stroke:none"
   transform="matrix(0.8755011,-0.4832161,0.4832161,0.8755011,-102.7117,179.68306)">
	<linearGradient
   id="XMLID_2_"
   gradientUnits="userSpaceOnUse"
   x1="298.2319"
   y1="28.0103"
   x2="298.2319"
   y2="517.96832"
   style="fill-opacity:1.0;fill:url(#linearGradient3234)">
		<stop
   offset="0"
   style="stop-color:#00ADEF;fill-opacity:1.0;fill:url(#linearGradient3234)"
   id="stop2239" />
		<stop
   offset="0.2693"
   style="stop-color:#0092D7;fill-opacity:1.0;fill:url(#linearGradient3234)"
   id="stop2241" />
		<stop
   offset="0.5249"
   style="stop-color:#007CC4;fill-opacity:1.0;fill:url(#linearGradient3234)"
   id="stop2243" />
		<stop
   offset="0.6517"
   style="stop-color:#0074BD;fill-opacity:1.0;fill:url(#linearGradient3234)"
   id="stop2245" />
		<stop
   offset="1"
   style="stop-color:#0071BC;fill-opacity:1.0;fill:url(#linearGradient3234)"
   id="stop2247" />
	</linearGradient>
	<circle
   cx="298.23199"
   cy="272.98901"
   r="244.979"
   id="circle2249"
   style="opacity:0.5;fill:url(#linearGradient3254);fill-opacity:1;stroke:none"
   sodipodi:cx="298.23199"
   sodipodi:cy="272.98901"
   sodipodi:rx="244.979"
   sodipodi:ry="244.979" />
</g>
</svg>