<?xml version="1.0" encoding="UTF-8" standalone="no"?>
<svg
   version="1.1"
   viewBox="0 0 1920 1080"
   id="svg1"
   sodipodi:docname="illu.svg"
   inkscape:version="1.4 (e7c3feb1, 2024-10-09)"
   xmlns:inkscape="http://www.inkscape.org/namespaces/inkscape"
   xmlns:sodipodi="http://sodipodi.sourceforge.net/DTD/sodipodi-0.dtd"
   xmlns="http://www.w3.org/2000/svg"
   xmlns:svg="http://www.w3.org/2000/svg">
  <defs
     id="defs1" />
  <sodipodi:namedview
     id="namedview1"
     pagecolor="#ffffff"
     bordercolor="#000000"
     borderopacity="0.25"
     inkscape:showpageshadow="2"
     inkscape:pageopacity="0.0"
     inkscape:pagecheckerboard="0"
     inkscape:deskcolor="#d1d1d1"
     inkscape:zoom="1.18"
     inkscape:cx="1116.1017"
     inkscape:cy="721.61017"
     inkscape:window-width="1624"
     inkscape:window-height="1186"
     inkscape:window-x="288"
     inkscape:window-y="25"
     inkscape:window-maximized="0"
     inkscape:current-layer="layer1"
     showgrid="false">
    <inkscape:grid
       id="grid14"
       units="px"
       originx="0"
       originy="0"
       spacingx="1"
       spacingy="1"
       empcolor="#0099e5"
       empopacity="0.30196078"
       color="#0099e5"
       opacity="0.14901961"
       empspacing="5"
       enabled="true"
       visible="false" />
  </sodipodi:namedview>
  <!-- Generator: Adobe Illustrator 29.0.1, SVG Export Plug-In . SVG Version: 2.1.0 Build 192)  -->
  <g
     inkscape:groupmode="layer"
     id="layer3"
     inkscape:label="3">
    <path
       style="fill:#ffffff;fill-opacity:1;stroke:none;stroke-width:5.834;stroke-dasharray:none;stroke-opacity:1"
       d="m 844.0678,593.22034 -11.01695,231.35593 201.69495,3.38983 1.6949,-195.76271 -39.83053,-49.15254 z"
       id="path39" />
    <path
       id="_x31_1"
       data-name="_x31_"
       d="m 1040.9,831.7 -210.1,-2.1 11.9,-236 c 18.2,-2.9 36.8,-2.8 55.2,-4.1 29.8,-2.1 61.1,-5.9 90.8,-7 3.2,-0.1 12.1,-0.7 14,1 1.9,1.7 1.2,2.8 2.1,3.9 9.4,12.2 26.3,31.1 33.4,43.4 3.3,5.8 1.9,7.6 1.9,12.9 0.4,34.2 0.8,68.7 1.1,102.7 0.2,28.4 -0.2,56.8 -0.2,85.2 z m -44.8,-242.3 -147.2,10.9 -12.4,223.5 197.5,2 -1.4,-183.6 -35,-2.9 -1.4,-49.9 z m 34.9,44.9 -27.9,-35.9 1,34.9"
       inkscape:label="sheet"
       style="display:inline" />
  </g>
  <g
     inkscape:groupmode="layer"
     id="layer10"
     inkscape:label="22">
    <path
       id="_x31_01"
       data-name="_x31_0"
       d="M1066,544.7c-24.6-9.6-51.7-29.3-61.5-54.6-7.3-18.9-5.1-37.9,8-53.6,47.3-56.9,193.1-24.1,208.1,49.6,12.6,62-72.3,80.3-118,70.6-18,11.2-40.1,24.7-62.1,17.9-3.6-5.1,7.4-8.9,11.1-12,5.9-4.9,10.2-11.6,14.5-17.9ZM1055,569.5c11.4-1.6,21.7-6.3,31.7-11.7s11.2-8.4,14.1-8.9,17.3,2.6,22.7,2.9c40,2.2,106-17.9,88.6-70.1-20.8-62.5-148.7-91.5-193-41.6-28.7,32.4.6,70,30.1,88.3,3.8,2.4,24.8,12.2,25.5,13.5,2.3,4.6-15.4,24.4-19.6,27.8Z"
       inkscape:label="bubble"
       style="fill:#0000ff" />
  </g>
  <g
     inkscape:groupmode="layer"
     id="layer9"
     inkscape:label="9">
    <path
       style="fill:#0000ff;fill-opacity:1;stroke:#0000ff;stroke-width:5.834;stroke-dasharray:none;stroke-opacity:1"
       d="M 907.36842,541.05262 882.10527,462.10526"
       id="path3"
       sodipodi:nodetypes="cc" />
  </g>
  <g
     inkscape:groupmode="layer"
     id="layer11"
     inkscape:label="10">
    <path
       style="fill:#0000ff;fill-opacity:1;stroke:#0000ff;stroke-width:6.71705;stroke-dasharray:none;stroke-opacity:1"
       d="m 805.94755,580.33437 -81.36879,-45.9319"
       id="path4"
       sodipodi:nodetypes="cc" />
  </g>
  <g
     inkscape:groupmode="layer"
     id="layer12"
     inkscape:label="11">
    <path
       style="fill:#0000ff;fill-opacity:1;stroke:#0000ff;stroke-width:6.15135;stroke-dasharray:none;stroke-opacity:1"
       d="m 774.83311,676.77519 -78.08726,-4.0767"
       id="path5"
       sodipodi:nodetypes="cc" />
  </g>
  <g
     inkscape:groupmode="layer"
     id="layer13"
     inkscape:label="12">
    <path
       style="fill:#0000ff;fill-opacity:1;stroke:#0000ff;stroke-width:6.55082;stroke-dasharray:none;stroke-opacity:1"
       d="m 772.29645,760.57024 -60.38237,35.70162"
       id="path6" />
  </g>
  <g
     inkscape:groupmode="layer"
     id="layer14"
     inkscape:label="13">
    <path
       style="fill:#0000ff;fill-opacity:1;stroke:#0000ff;stroke-width:7.43285;stroke-dasharray:none;stroke-opacity:1"
       d="m 788.60901,841.74484 -48.79698,58.61558"
       id="path7" />
  </g>
  <g
     inkscape:groupmode="layer"
     id="layer15"
     inkscape:label="14">
    <path
       style="fill:#0000ff;fill-opacity:1;stroke:#0000ff;stroke-width:6.55536;stroke-dasharray:none;stroke-opacity:1"
       d="m 847.64155,879.21276 -24.75678,66.83763"
       id="path8"
       sodipodi:nodetypes="cc" />
  </g>
  <g
     inkscape:groupmode="layer"
     id="layer16"
     inkscape:label="15">
    <path
       style="fill:#0000ff;fill-opacity:1;stroke:#0000ff;stroke-width:5.234;stroke-dasharray:none;stroke-opacity:1"
       d="M 929.47368,888.42105 V 960"
       id="path9" />
  </g>
  <g
     inkscape:groupmode="layer"
     id="layer17"
     inkscape:label="16">
    <path
       style="fill:#0000ff;fill-opacity:1;stroke:#0000ff;stroke-width:6.40307;stroke-dasharray:none;stroke-opacity:1"
       d="m 1006.8816,890.70644 22.0263,69.11344"
       id="path10" />
  </g>
  <g
     inkscape:groupmode="layer"
     id="layer18"
     inkscape:label="17">
    <path
       style="fill:#0000ff;fill-opacity:1;stroke:#0000ff;stroke-width:6.06208;stroke-dasharray:none;stroke-opacity:1"
       d="m 1075.0406,882.38554 43.6031,47.8605"
       id="path11" />
  </g>
  <g
     inkscape:groupmode="layer"
     id="layer19"
     inkscape:label="18">
    <path
       style="fill:#0000ff;fill-opacity:1;stroke:#0000ff;stroke-width:6.50626;stroke-dasharray:none;stroke-opacity:1"
       d="m 1136.142,826.89968 51.9265,34.62168"
       id="path12" />
  </g>
  <g
     inkscape:groupmode="layer"
     id="layer20"
     inkscape:label="19">
    <path
       style="fill:#0000ff;fill-opacity:1;stroke:#0000ff;stroke-width:5.66537;stroke-dasharray:none;stroke-opacity:1"
       d="m 1157.8576,744.18925 73.7584,-3.11534"
       id="path13" />
  </g>
  <g
     inkscape:groupmode="layer"
     id="layer21"
     inkscape:label="21">
    <path
       style="fill:#0000ff;fill-opacity:1;stroke:#0000ff;stroke-width:5.234;stroke-dasharray:none;stroke-opacity:1"
       d="m 1156.8421,661.05263 70.5263,-26.31579"
       id="path14" />
  </g>
  <g
     inkscape:groupmode="layer"
     id="layer8"
     inkscape:label="8"
     style="display:inline">
    <path
       id="_x36_1"
       data-name="_x36_"
       d="m 856.7,755.1 117.8,4 c 7.8,7.1 -3.6,7 -8.8,6.8 -35.1,-1.2 -70.4,-3.6 -105.7,-4 -4.4,-0.2 -5.3,-3.4 -3.3,-6.9 z"
       inkscape:label="line5" />
  </g>
  <g
     inkscape:groupmode="layer"
     id="layer7"
     inkscape:label="7">
    <path
       id="_x35_1"
       data-name="_x35_"
       d="m 860.6,726.9 c -3,-9.6 5.1,-5.9 10.3,-5.8 11.7,0.2 23.4,0.7 34.9,1 30.5,0.8 35.24338,1.58354 65.25455,1.9 31.03635,0.32727 41.64545,1.4 37.04545,6.5 -4.6,5.1 -23.31364,1.06818 -26.11364,0.96818 C 947.58636,731.06818 931.1,728.9 896.9,727.9 l -36.3,-1.1 z"
       inkscape:label="line4"
       sodipodi:nodetypes="cccsscccc" />
  </g>
  <g
     inkscape:groupmode="layer"
     id="layer6"
     inkscape:label="6">
    <path
       id="_x34_1"
       data-name="_x34_"
       d="m 984,692.00455 -0.3,4.9 -3,1 -119.2,-1.5 c -2.1,-1.9 -2.1,-4.1 0,-6 14,-0.7 28.3,-0.7 42.4,-0.5 23.6,0.3 51.7,-0.7 74.8,1 1.8,0.1 3.6,0.3 5.3,1.2 z"
       inkscape:label="line3" />
  </g>
  <g
     inkscape:groupmode="layer"
     id="layer5"
     inkscape:label="5">
    <path
       id="_x33_1"
       data-name="_x33_"
       d="M862,659.3h145.6c2,0,2,7,0,7h-145.6c-2,0-3-5.9,0-7Z"
       inkscape:label="line2" />
  </g>
  <g
     inkscape:groupmode="layer"
     id="layer4"
     inkscape:label="4">
    <path
       id="_x32_1"
       data-name="_x32_"
       d="m 963.1,633.2 c -1.7,0.8 -3.5,1 -5.3,1.2 -26.3,1.9 -54.4,1.1 -80.9,1.9 -3.8,0.1 -16.87737,5.06498 -16.87737,-1.33502 0,-1.80141 0.47737,-3.26498 0.97737,-3.66498 1,-0.9 12.3,-1.9 15,-2 20.4,-1.1 42.4,-1.5 62.8,-2 7.6,-0.2 15.3,0 22.8,0.2 2.1,0.7 1.9,3.9 1.5,5.7 z"
       inkscape:label="line1"
       sodipodi:nodetypes="cccsccccc" />
  </g>
  <g
     inkscape:groupmode="layer"
     id="layer2"
     inkscape:label="2"
     style="display:inline">
    <path
       style="fill:none;fill-opacity:1;stroke:#000000;stroke-width:5.234;stroke-dasharray:none;stroke-opacity:1"
       d="m 1060.0695,752.47947 14.3501,26.09113 17.8911,-24.41384"
       id="path2"
       sodipodi:nodetypes="ccc"
       inkscape:label="tip" />
    <line
       id="line39-0"
       data-name="_x37_"
       x1="1081.2233"
       y1="702.5246"
       x2="1074.9648"
       y2="764.36389"
       fill="none"
       stroke="#000000"
       stroke-miterlimit="10"
       stroke-width="5.78041"
       inkscape:label="vertical" />
  </g>
  <g
     inkscape:groupmode="layer"
     id="layer1"
     inkscape:label="1">
    <line
       id="line39"
       data-name="_x37_"
       x1="1087.2999"
       y1="641.90991"
       x2="1081.0415"
       y2="703.74921"
       fill="none"
       stroke="#000000"
       stroke-miterlimit="10"
       stroke-width="5.78041"
       inkscape:label="vertical"
       style="display:inline" />
  </g>
</svg>
